<?xml version="1.0" standalone="no"?>
<!DOCTYPE svg PUBLIC "-//W3C//DTD SVG 20010904//EN"
 "http://www.w3.org/TR/2001/REC-SVG-20010904/DTD/svg10.dtd">
<svg version="1.0" xmlns="http://www.w3.org/2000/svg"
 width="700.000000pt" height="700.000000pt" viewBox="0 0 700.000000 700.000000"
 preserveAspectRatio="xMidYMid meet">
<metadata>
Created by potrace 1.14, written by Peter Selinger 2001-2017
</metadata>
<g transform="translate(0.000000,700.000000) scale(0.100000,-0.100000)"
fill="#000000" stroke="none">
<path d="M6083 6672 c-18 -2 -33 -6 -33 -10 0 -4 -14 -8 -32 -9 -17 -1 -35 -7
-38 -14 -4 -6 -11 -11 -16 -11 -17 0 -63 -32 -58 -40 3 -4 0 -8 -5 -8 -15 0
-461 -447 -454 -454 4 -3 1 -6 -6 -6 -15 0 -207 -190 -203 -202 1 -5 -2 -7 -7
-4 -12 8 -53 -49 -43 -59 4 -5 1 -5 -6 -1 -15 9 -44 -23 -35 -38 4 -5 1 -6 -5
-2 -6 3 -17 -3 -25 -14 -8 -11 -47 -55 -87 -98 -40 -42 -93 -98 -117 -124
l-45 -48 -1619 0 c-1439 0 -1624 -2 -1657 -15 -49 -21 -81 -52 -103 -100 -18
-38 -19 -113 -19 -1915 0 -1798 1 -1877 19 -1915 22 -49 69 -91 119 -105 26
-8 601 -10 1919 -8 l1881 3 39 31 c21 16 48 50 61 74 l22 44 0 1816 0 1815 46
50 c25 28 65 71 90 97 24 26 44 53 44 58 0 6 5 8 10 5 6 -3 10 1 10 10 0 10 5
13 12 9 8 -5 9 -2 4 12 -4 10 -4 15 0 12 12 -12 46 12 40 28 -3 8 -2 13 3 9
11 -6 131 110 131 126 0 5 5 7 10 4 6 -3 14 4 19 17 6 13 10 19 10 15 1 -13
111 100 111 114 0 7 3 10 6 7 6 -7 303 284 298 291 -2 2 5 11 17 19 11 8 18
20 15 29 -3 8 -1 11 4 8 9 -5 12 1 9 21 0 4 5 10 12 15 7 4 13 23 13 42 1 19
4 33 7 31 4 -2 7 26 8 61 1 37 -3 65 -9 65 -5 0 -6 7 -3 17 5 12 3 14 -7 8 -9
-6 -12 -4 -8 6 7 19 -17 79 -32 79 -6 0 -9 4 -5 9 3 6 -3 14 -12 20 -10 6 -14
11 -10 11 5 0 -6 12 -24 28 -18 15 -34 26 -36 24 -2 -1 -11 4 -20 13 -8 9 -23
13 -31 10 -9 -3 -13 -3 -9 1 13 13 -36 32 -57 21 -13 -6 -16 -6 -12 2 5 7 -2
11 -16 12 -13 0 -30 1 -38 3 -8 1 -30 0 -47 -2z m-493 -1312 c0 -5 -2 -10 -4
-10 -3 0 -8 5 -11 10 -3 6 -1 10 4 10 6 0 11 -4 11 -10z"/>
</g>
</svg>
