<?xml version="1.0" encoding="UTF-8" standalone="no"?>
<svg xmlns:dc="http://purl.org/dc/elements/1.1/" xmlns:cc="http://creativecommons.org/ns#" xmlns:rdf="http://www.w3.org/1999/02/22-rdf-syntax-ns#" xmlns:svg="http://www.w3.org/2000/svg" xmlns="http://www.w3.org/2000/svg" xmlns:sodipodi="http://sodipodi.sourceforge.net/DTD/sodipodi-0.dtd" xmlns:inkscape="http://www.inkscape.org/namespaces/inkscape" version="1.1" x="0px" y="0px" viewBox="0 0 115 115" enable-background="new 0 0 100 100" xml:space="preserve" id="svg76" sodipodi:docname="noun_119366_cc.svg" width="115" height="115" inkscape:version="0.92.2 5c3e80d, 2017-08-06"><metadata id="metadata82"><rdf:RDF><cc:Work rdf:about=""><dc:format>image/svg+xml</dc:format><dc:type rdf:resource="http://purl.org/dc/dcmitype/StillImage"/><dc:title/></cc:Work></rdf:RDF></metadata><defs id="defs80"/><sodipodi:namedview pagecolor="#ffffff" bordercolor="#666666" borderopacity="1" objecttolerance="10" gridtolerance="10" guidetolerance="10" inkscape:pageopacity="0" inkscape:pageshadow="2" inkscape:window-width="640" inkscape:window-height="480" id="namedview78" showgrid="false" fit-margin-top="10" fit-margin-left="10" fit-margin-right="10" fit-margin-bottom="10" inkscape:zoom="1.888" inkscape:cx="47.495427" inkscape:cy="52.444087" inkscape:window-x="0" inkscape:window-y="0" inkscape:window-maximized="0" inkscape:current-layer="svg76"/><g id="g40" transform="translate(8.1,7.5)"><path d="M 79.9,97.5 H 20.1 C 13.4,97.5 7.9,92 7.9,85.3 V 14.7 C 7.9,8 13.4,2.5 20.1,2.5 H 79.8 C 86.5,2.5 92,8 92,14.7 V 85.3 C 92.1,92 86.6,97.5 79.9,97.5 Z M 20.1,5.2 c -5.2,0 -9.5,4.3 -9.5,9.5 v 70.6 c 0,5.2 4.3,9.5 9.5,9.5 h 59.7 c 5.2,0 9.5,-4.3 9.5,-9.5 V 14.7 C 89.3,9.5 85,5.2 79.8,5.2 Z" id="path38" inkscape:connector-curvature="0"/></g><g id="g46" transform="translate(8.1,7.5)"><path d="M 79.2,28.3 H 35.9 c -0.6,0 -1,-0.5 -1,-1 v -0.4 c 0,-0.6 0.5,-1 1,-1 h 43.2 c 0.6,0 1,0.5 1,1 v 0.4 c 0.1,0.5 -0.4,1 -0.9,1 z" id="path42" inkscape:connector-curvature="0"/><path d="M 79,28.7 H 36.1 c -0.9,0 -1.7,-0.7 -1.7,-1.7 0,-0.9 0.7,-1.7 1.7,-1.7 H 79 c 0.9,0 1.7,0.7 1.7,1.7 -0.1,1 -0.8,1.7 -1.7,1.7 z M 36.1,26.3 c -0.4,0 -0.8,0.3 -0.8,0.8 0,0.4 0.3,0.8 0.8,0.8 H 79 c 0.4,0 0.8,-0.3 0.8,-0.8 0,-0.4 -0.3,-0.8 -0.8,-0.8 z" id="path44" inkscape:connector-curvature="0"/></g><g id="g52" transform="translate(8.1,7.5)"><path d="M 79.2,51.2 H 35.9 c -0.6,0 -1,-0.5 -1,-1 v -0.4 c 0,-0.6 0.5,-1 1,-1 h 43.2 c 0.6,0 1,0.5 1,1 v 0.4 c 0.1,0.6 -0.4,1 -0.9,1 z" id="path48" inkscape:connector-curvature="0"/><path d="M 79,51.7 H 36.1 c -0.9,0 -1.7,-0.7 -1.7,-1.7 0,-1 0.7,-1.7 1.7,-1.7 H 79 c 0.9,0 1.7,0.7 1.7,1.7 0,1 -0.8,1.7 -1.7,1.7 z M 36.1,49.2 c -0.4,0 -0.8,0.3 -0.8,0.8 0,0.5 0.3,0.8 0.8,0.8 H 79 c 0.4,0 0.8,-0.3 0.8,-0.8 0,-0.5 -0.3,-0.8 -0.8,-0.8 z" id="path50" inkscape:connector-curvature="0"/></g><g id="g58" transform="translate(8.1,7.5)"><path d="M 79.2,74.1 H 35.9 c -0.6,0 -1,-0.5 -1,-1 v -0.4 c 0,-0.6 0.5,-1 1,-1 h 43.2 c 0.6,0 1,0.5 1,1 v 0.4 c 0.1,0.6 -0.4,1 -0.9,1 z" id="path54" inkscape:connector-curvature="0"/><path d="M 79,74.6 H 36.1 c -0.9,0 -1.7,-0.7 -1.7,-1.7 0,-0.9 0.7,-1.7 1.7,-1.7 H 79 c 0.9,0 1.7,0.7 1.7,1.7 -0.1,0.9 -0.8,1.7 -1.7,1.7 z M 36.1,72.2 c -0.4,0 -0.8,0.3 -0.8,0.8 0,0.5 0.3,0.8 0.8,0.8 H 79 c 0.4,0 0.8,-0.3 0.8,-0.8 0,-0.5 -0.3,-0.8 -0.8,-0.8 z" id="path56" inkscape:connector-curvature="0"/></g><g id="g62" transform="translate(8.1,7.5)"><path d="M 25.3,33.6 H 25 c -3.6,0 -6.5,-2.9 -6.5,-6.5 0,-3.6 2.9,-6.5 6.5,-6.5 h 0.3 c 3.6,0 6.5,2.9 6.5,6.5 0,3.6 -3,6.5 -6.5,6.5 z M 25,23.3 c -2.1,0 -3.8,1.7 -3.8,3.8 0,2.1 1.7,3.8 3.8,3.8 h 0.3 c 2.1,0 3.8,-1.7 3.8,-3.8 0,-2.1 -1.7,-3.8 -3.8,-3.8 z" id="path60" inkscape:connector-curvature="0"/></g><g id="g66" transform="translate(8.1,7.5)"><path d="M 25.3,56.5 H 25 c -3.6,0 -6.5,-2.9 -6.5,-6.5 0,-3.6 2.9,-6.5 6.5,-6.5 h 0.3 c 3.6,0 6.5,2.9 6.5,6.5 0,3.6 -3,6.5 -6.5,6.5 z M 25,46.2 c -2.1,0 -3.8,1.7 -3.8,3.8 0,2.1 1.7,3.8 3.8,3.8 h 0.3 c 2.1,0 3.8,-1.7 3.8,-3.8 0,-2.1 -1.7,-3.8 -3.8,-3.8 z" id="path64" inkscape:connector-curvature="0"/></g><g id="g70" transform="translate(8.1,7.5)"><path d="M 25.3,79.4 H 25 c -3.6,0 -6.5,-2.9 -6.5,-6.5 0,-3.6 2.9,-6.5 6.5,-6.5 h 0.3 c 3.6,0 6.5,2.9 6.5,6.5 0,3.6 -3,6.5 -6.5,6.5 z M 25,69.2 c -2.1,0 -3.8,1.7 -3.8,3.8 0,2.1 1.7,3.8 3.8,3.8 h 0.3 c 2.1,0 3.8,-1.7 3.8,-3.8 0,-2.1 -1.7,-3.8 -3.8,-3.8 z" id="path68" inkscape:connector-curvature="0"/></g></svg>