<?xml version="1.0" encoding="UTF-8"?>
<!-- Generator: Adobe Illustrator 16.0.4, SVG Export Plug-In . SVG Version: 6.00 Build 0)  -->
<!DOCTYPE svg PUBLIC "-//W3C//DTD SVG 1.1//EN" "http://www.w3.org/Graphics/SVG/1.1/DTD/svg11.dtd">
<svg version="1.1" id="Layer_1" xmlns="http://www.w3.org/2000/svg" xmlns:xlink="http://www.w3.org/1999/xlink" x="0px" y="0px" width="61.609px" height="61.609px" viewBox="0 0 61.609 61.609" enable-background="new 0 0 61.609 61.609" xml:space="preserve">
<g id="g27_6_" transform="translate(491.78471,169.30575)">
	<g id="path29_8_">
		<path d="M-430.175-138.5c0-1.435-0.1-2.842-0.288-4.221l-5.292-1.769c-0.645-2.729-1.718-5.295-3.15-7.615    l2.486-4.989c-1.706-2.251-3.717-4.26-5.968-5.968l-4.989,2.488c-2.321-1.432-4.885-2.508-7.615-3.152l-1.767-5.289    c-1.384-0.189-2.791-0.291-4.221-0.291c-1.435,0-2.84,0.102-4.221,0.291l-1.769,5.289c-2.731,0.645-5.297,1.721-7.618,3.152    l-4.986-2.488c-2.251,1.708-4.263,3.717-5.968,5.968l2.485,4.989c-1.432,2.32-2.505,4.887-3.152,7.615l-5.286,1.769    c-0.192,1.379-0.291,2.786-0.291,4.221c0,1.433,0.099,2.84,0.291,4.219l5.286,1.771c0.647,2.729,1.721,5.295,3.152,7.616    l-2.485,4.986c1.705,2.251,3.717,4.263,5.968,5.97l4.986-2.488c2.321,1.435,4.887,2.508,7.618,3.152l1.766,5.289    c1.384,0.189,2.789,0.289,4.222,0.289c1.432,0,2.839-0.1,4.221-0.289l1.769-5.289c2.73-0.645,5.294-1.718,7.615-3.152l4.986,2.488    c2.254-1.707,4.265-3.719,5.971-5.97l-2.488-4.986c1.435-2.321,2.508-4.888,3.152-7.616l5.289-1.771    C-430.275-135.66-430.175-137.067-430.175-138.5z M-439.928-138.5c0,11.628-9.425,21.054-21.053,21.054    s-21.054-9.426-21.054-21.054s9.426-21.056,21.054-21.056S-439.928-150.128-439.928-138.5z"/>
	</g>
</g>
</svg>
